<svg xmlns="http://www.w3.org/2000/svg" version="1.0" width="648.000000pt" height="532.000000pt" viewBox="0 0 648.000000 532.000000" preserveAspectRatio="xMidYMid meet">
<metadata>
Created by potrace 1.16, written by Peter Selinger 2001-2019
</metadata>
<g transform="translate(0.000000,532.000000) scale(0.100000,-0.100000)" fill="#000000" stroke="none">
<path d="M3112 4880 c-204 -29 -411 -137 -556 -290 -255 -271 -333 -656 -202 -1000 30 -79 881 -1885 896 -1903 4 -4 52 88 107 205 55 117 256 542 446 943 190 402 357 768 371 814 125 397 -30 837 -378 1074 -82 56 -206 111 -306 137 -96 25 -276 34 -378 20z m262 -100 c95 -14 235 -63 315 -109 290 -171 461 -509 421 -834 -20 -164 1 -117 -797 -1800 -31 -65 -60 -114 -64 -110 -13 15 -792 1668 -810 1722 -128 370 15 784 344 999 110 72 222 112 377 136 50 7 147 5 214 -4z"/>
<path d="M3116 4495 c-32 -8 -89 -30 -125 -48 -70 -34 -186 -135 -222 -193 l-21 -34 22 -29 c26 -37 130 -131 144 -131 6 0 25 24 41 52 39 68 174 204 254 258 35 23 98 58 140 78 71 32 74 35 51 44 -45 17 -220 19 -284 3z"/>
<path d="M3465 4416 c-129 -42 -235 -108 -342 -214 -68 -67 -133 -154 -133 -178 0 -15 110 -50 185 -58 l50 -6 45 62 c84 115 231 213 371 246 38 10 69 20 69 24 0 10 -114 110 -147 130 -26 15 -32 15 -98 -6z"/>
<path d="M3703 4209 c-59 -10 -163 -47 -163 -58 0 -5 16 -42 35 -83 66 -144 80 -213 80 -400 0 -191 -2 -189 80 -69 108 158 132 355 65 535 -30 79 -36 84 -97 75z"/>
<path d="M2706 4132 c-12 -19 -36 -139 -36 -178 0 -32 6 -46 33 -71 103 -97 244 -173 385 -209 104 -26 222 -32 222 -11 -1 30 -22 107 -46 163 l-25 61 -64 6 c-147 14 -277 74 -390 179 -40 38 -76 64 -79 60z"/>
<path d="M3389 4047 c-94 -93 -98 -103 -66 -174 61 -137 74 -294 37 -438 -11 -43 -18 -80 -15 -83 8 -8 175 49 194 67 60 52 66 357 11 516 -31 91 -72 175 -85 175 -6 0 -40 -29 -76 -63z"/>
<path d="M2694 3763 c4 -16 23 -62 43 -103 85 -175 270 -299 468 -312 l50 -3 22 62 c12 35 25 85 29 112 l6 49 -43 6 c-24 3 -70 8 -102 11 -132 14 -309 85 -417 167 -28 21 -53 38 -56 38 -4 0 -3 -12 0 -27z"/>
<path d="M1841 1497 c-73 -25 -100 -112 -61 -192 19 -40 58 -76 94 -88 13 -4 -49 -133 -110 -224 -87 -130 -168 -176 -202 -113 -34 64 8 300 74 419 29 53 30 58 3 66 -15 5 -54 -13 -150 -71 -123 -75 -146 -95 -133 -115 10 -17 36 -9 105 36 38 24 69 43 69 41 0 -1 -9 -28 -20 -60 -28 -82 -44 -202 -36 -268 17 -135 113 -179 227 -104 55 37 151 170 211 293 35 72 55 103 68 103 22 0 108 45 138 73 50 47 14 67 -49 27 -24 -15 -54 -31 -66 -35 -22 -6 -22 -4 -20 62 2 81 -15 128 -54 148 -33 18 -43 18 -88 2z"/>
<path d="M2484 1460 c-67 -27 -147 -175 -182 -338 -15 -69 -18 -75 -54 -93 -20 -10 -39 -19 -40 -19 -2 0 -3 18 -3 40 -2 121 -162 129 -236 12 -74 -117 -33 -242 80 -242 63 0 104 27 127 84 13 30 28 49 44 55 14 5 32 12 41 16 13 5 18 -3 23 -46 5 -38 15 -59 37 -82 27 -27 35 -29 80 -25 35 4 63 15 94 37 25 18 45 28 45 23 0 -5 12 -21 26 -36 35 -34 93 -35 152 -1 l42 24 38 -25 c32 -23 45 -25 103 -22 51 3 75 10 107 30 31 21 41 24 46 13 3 -8 16 -21 30 -30 31 -21 75 -13 115 21 l29 24 -10 -34 c-8 -26 -27 -46 -78 -80 -125 -86 -184 -192 -132 -239 25 -23 94 -22 142 3 48 24 81 78 111 181 l22 76 67 41 68 40 -10 -36 c-8 -30 -7 -38 8 -49 11 -8 30 -13 43 -11 22 3 30 20 85 183 91 268 142 367 207 401 61 31 96 -11 83 -101 -3 -27 -33 -140 -66 -250 -56 -187 -58 -200 -42 -212 23 -16 49 -17 61 0 6 6 27 68 47 137 43 141 95 277 132 344 45 81 113 119 144 81 16 -19 0 -113 -40 -239 -83 -262 -79 -329 21 -356 54 -15 105 -3 146 33 29 25 43 30 77 29 43 -3 106 27 106 50 1 7 7 1 16 -14 26 -49 87 -49 145 -1 23 19 34 24 37 15 2 -7 13 -22 25 -33 32 -30 93 -25 151 11 l48 31 34 -31 c30 -26 42 -30 92 -30 92 0 212 72 195 116 -7 20 -15 18 -71 -17 -62 -38 -122 -48 -157 -25 -27 18 -25 36 4 36 9 0 39 11 67 25 79 39 105 105 64 158 -25 32 -79 44 -120 27 -43 -18 -97 -82 -111 -132 -6 -24 -13 -48 -14 -54 -6 -21 -72 -65 -101 -67 -35 -2 -54 30 -54 91 0 41 1 43 48 63 26 11 61 23 77 26 39 8 55 21 48 40 -6 16 -54 14 -98 -3 -12 -5 0 14 30 47 62 69 103 143 111 202 5 37 3 48 -15 66 -33 33 -74 27 -122 -16 -22 -20 -50 -55 -61 -77 -30 -59 -67 -171 -74 -226 -5 -38 -11 -50 -31 -59 -29 -13 -30 -58 0 -53 29 5 20 -28 -19 -64 -42 -40 -74 -45 -74 -11 0 12 7 60 15 106 8 46 12 87 10 92 -10 15 -68 39 -97 39 -35 0 -96 -30 -124 -62 -46 -50 -58 -81 -64 -157 -5 -75 -5 -76 -42 -96 -29 -15 -42 -17 -65 -10 -44 16 -42 64 12 240 98 323 86 396 -63 387 -31 -3 -108 -76 -143 -137 l-29 -50 0 62 c0 106 -35 143 -117 125 -67 -15 -100 -46 -154 -145 l-28 -52 6 72 c6 71 5 72 -26 104 -29 28 -36 31 -77 26 -107 -12 -196 -136 -136 -190 28 -25 38 -21 51 22 13 44 61 101 85 101 21 0 36 -31 36 -73 0 -38 -25 -140 -66 -271 l-27 -87 -76 -49 c-41 -27 -76 -48 -77 -47 -1 1 9 56 22 121 14 66 23 125 20 133 -8 21 -44 15 -60 -9 -8 -13 -22 -52 -31 -88 -21 -83 -40 -118 -70 -132 -53 -24 -69 30 -39 132 29 103 29 110 2 110 -14 0 -32 -8 -42 -19 -19 -21 -56 -120 -56 -151 0 -46 -138 -98 -189 -71 -25 14 -28 41 -3 41 30 0 119 47 136 71 18 26 21 81 6 108 -13 26 -65 45 -102 37 -67 -13 -125 -85 -145 -181 -6 -29 -17 -45 -42 -62 -61 -41 -92 -27 -99 46 l-5 51 77 80 c127 136 200 316 147 369 -64 64 -170 -21 -231 -187 -30 -84 -60 -212 -60 -261 0 -23 -11 -40 -42 -70 -76 -72 -126 -64 -135 20 -5 42 -3 46 54 105 109 113 182 247 183 335 0 68 -41 95 -106 69z m36 -99 c0 -58 -148 -305 -150 -249 0 22 48 174 67 211 34 66 83 89 83 38z m246 14 c14 -35 -86 -230 -141 -275 -15 -12 -16 -10 -10 16 22 97 71 221 103 257 18 21 41 22 48 2z m1667 -347 c-23 -99 -49 -138 -93 -138 -47 0 -53 50 -15 115 25 43 77 85 106 85 15 0 15 -6 2 -62z m-2320 32 c-1 -8 -5 -28 -9 -43 -5 -21 -2 -31 12 -41 16 -12 16 -17 4 -45 -31 -75 -110 -64 -110 16 0 65 51 138 90 130 8 -1 14 -9 13 -17z"/>
</g>
</svg>